# xmcd CD database file
#
# Track frame offsets:
#	150
#	49733
#	73765
#	90057
#	113232
#	127492
#	153182
#	170549
#	191784
#	216359
#	237601
#	255769
#	286569
#
# Disc length: 4038 seconds
#
# Revision: 2
# Processed by: cddbd v1.5.1PL2 Copyright (c) Steve Scherf et al.
# Submitted via: CDex 1.51
#
DISCID=b60fc40d
DTITLE=Jazz - Compil 1
DYEAR=1900
DGENRE=Jazz
TTITLE0=Adderley - Something Else - Automn leaves
TTITLE1=De Wilde - Open Changes - We'll be together again
TTITLE2=Ellington - Money Jungle - Fleurette africaine
TTITLE3=Fitzgerald-Armstrong - Ella&Louis - Tenderly
TTITLE4=Kirk - Wee Free Kings - Three for the festival
TTITLE5=Mingus - Blues&Routs - Wednesday night prayer meeting
TTITLE6=Monk - Around midnight
TTITLE7=Nelson - The Blues And The Abstract Truth - Hoe down
TTITLE8=Peppers - Meets The Rythm Section - You'd be so nice
TTITLE9=Sheep-Parlan - Going Home - Nobody knows
TTITLE10=Terry-McGhee - I got a woman
TTITLE11=Young - Pres&Teddy - Love me or leave me
TTITLE12=Young-Gyllespye - Bird And Diz - Mohawk
EXTD=
EXTT0=
EXTT1=
EXTT2=
EXTT3=
EXTT4=
EXTT5=
EXTT6=
EXTT7=
EXTT8=
EXTT9=
EXTT10=
EXTT11=
EXTT12=
PLAYORDER=
